# xmcd
#
# Track frame offsets: 
#        182
#        15960
#        31867
#        43795
#        57197
#        70762
#        85165
#        99060
#        113700
#        129225
#        146195
#        161515
#        176680
#        191065
#        203872
#        219590
#        233510
#        247122
#        261502
#        275125
#        290417
#        306037
#
# Disc length: 4276 seconds
#
# Revision: 2
# Processed by: cddbd v1.5.2PL0 Copyright (c) Steve Scherf et al.
# Submitted via: ExactAudioCopyFreeDBPlugin 1.0
#
DISCID=3a10b216
DTITLE=Bessie Smith - Do Your Duty: The Essential Recordings of Bessie
DTITLE=Smith
DYEAR=1994
DGENRE=Blues
TTITLE0=Do Your Duty
TTITLE1=Gimmee A Pigfoot
TTITLE2=Take Me For A Buggy Ride
TTITLE3=After You've Gone
TTITLE4=Nobody Knows When You're Down And Out
TTITLE5=St. Louis Blues
TTITLE6=Reckless Blues
TTITLE7=Cold In Hand Blues
TTITLE8=Careless Love Blues
TTITLE9=Nashville Woman's Blues
TTITLE10=I Ain't Gonna Play No Second Fiddle
TTITLE11=Back Water Blues
TTITLE12=Sinful Blues
TTITLE13=Sam Jones Blues
TTITLE14='Tain't Nobody's Bizness If I Do
TTITLE15=J.C. Holmes Blues
TTITLE16=Kitchen Man
TTITLE17=Weeping Willow Blues
TTITLE18=Empty Bed Blues (Part 1)
TTITLE19=Empty Bed Blues (Part 2)
TTITLE20=Down Hearted Blues
TTITLE21=Jail House Blues
EXTD=YEAR: 1994 ID3G:   0
EXTT0=
EXTT1=
EXTT2=
EXTT3=
EXTT4=
EXTT5=
EXTT6=
EXTT7=
EXTT8=
EXTT9=
EXTT10=
EXTT11=
EXTT12=
EXTT13=
EXTT14=
EXTT15=
EXTT16=
EXTT17=
EXTT18=
EXTT19=
EXTT20=
EXTT21=
PLAYORDER=
